{
	"patcher" : 	{
		"fileversion" : 1,
		"appversion" : 		{
			"major" : 8,
			"minor" : 1,
			"revision" : 8,
			"architecture" : "x64",
			"modernui" : 1
		}
,
		"classnamespace" : "box",
		"rect" : [ 35.0, 144.0, 1370.0, 721.0 ],
		"bglocked" : 0,
		"openinpresentation" : 0,
		"default_fontsize" : 12.0,
		"default_fontface" : 0,
		"default_fontname" : "Arial",
		"gridonopen" : 2,
		"gridsize" : [ 15.0, 15.0 ],
		"gridsnaponopen" : 2,
		"objectsnaponopen" : 1,
		"statusbarvisible" : 2,
		"toolbarvisible" : 1,
		"lefttoolbarpinned" : 0,
		"toptoolbarpinned" : 0,
		"righttoolbarpinned" : 0,
		"bottomtoolbarpinned" : 0,
		"toolbars_unpinned_last_save" : 0,
		"tallnewobj" : 0,
		"boxanimatetime" : 200,
		"enablehscroll" : 1,
		"enablevscroll" : 1,
		"devicewidth" : 0.0,
		"description" : "",
		"digest" : "",
		"tags" : "",
		"style" : "",
		"subpatcher_template" : "Default Max 7",
		"showontab" : 1,
		"assistshowspatchername" : 0,
		"title" : "MetaBow Toolkit Example - Preset Interpolation 2",
		"boxes" : [ 			{
				"box" : 				{
					"id" : "obj-1",
					"maxclass" : "newobj",
					"numinlets" : 1,
					"numoutlets" : 1,
					"outlettype" : [ "" ],
					"patching_rect" : [ 615.0, 501.0, 81.0, 22.0 ],
					"text" : "loadmess -48"
				}

			}
, 			{
				"box" : 				{
					"id" : "obj-49",
					"maxclass" : "newobj",
					"numinlets" : 2,
					"numoutlets" : 2,
					"outlettype" : [ "", "" ],
					"patching_rect" : [ 15.0, 585.0, 89.0, 22.0 ],
					"text" : "route likelihood"
				}

			}
, 			{
				"box" : 				{
					"id" : "obj-39",
					"maxclass" : "newobj",
					"numinlets" : 1,
					"numoutlets" : 1,
					"outlettype" : [ "" ],
					"patching_rect" : [ 83.0, 234.0, 133.0, 22.0 ],
					"text" : "loadmess numbuffers 3"
				}

			}
, 			{
				"box" : 				{
					"id" : "obj-26",
					"maxclass" : "message",
					"numinlets" : 2,
					"numoutlets" : 1,
					"outlettype" : [ "" ],
					"patching_rect" : [ 243.0, 142.0, 69.0, 22.0 ],
					"text" : "mode learn"
				}

			}
, 			{
				"box" : 				{
					"arrows" : 1,
					"id" : "obj-20",
					"justification" : 1,
					"maxclass" : "live.line",
					"numinlets" : 1,
					"numoutlets" : 0,
					"patching_rect" : [ 653.625, 191.75, 163.75, 10.0 ]
				}

			}
, 			{
				"box" : 				{
					"arrows" : 1,
					"id" : "obj-8",
					"justification" : 1,
					"maxclass" : "live.line",
					"numinlets" : 1,
					"numoutlets" : 0,
					"patching_rect" : [ 804.5, 206.0, 12.875, 55.75 ]
				}

			}
, 			{
				"box" : 				{
					"arrows" : 2,
					"id" : "obj-6",
					"justification" : 1,
					"maxclass" : "live.line",
					"numinlets" : 1,
					"numoutlets" : 0,
					"patching_rect" : [ 758.625, 250.5, 43.875, 11.25 ]
				}

			}
, 			{
				"box" : 				{
					"id" : "obj-48",
					"maxclass" : "message",
					"numinlets" : 2,
					"numoutlets" : 1,
					"outlettype" : [ "" ],
					"patching_rect" : [ 538.625, 376.5, 64.0, 22.0 ],
					"text" : "mode play"
				}

			}
, 			{
				"box" : 				{
					"id" : "obj-45",
					"linecount" : 3,
					"maxclass" : "comment",
					"numinlets" : 1,
					"numoutlets" : 0,
					"patching_rect" : [ 629.625, 363.0, 210.0, 47.0 ],
					"text" : "Enter the play mode where incoming gestures are recognised against the ones it has just been trained with"
				}

			}
, 			{
				"box" : 				{
					"bgcolor" : [ 1.0, 0.788235, 0.470588, 1.0 ],
					"fontname" : "Arial Bold",
					"hint" : "",
					"id" : "obj-46",
					"ignoreclick" : 1,
					"legacytextcolor" : 1,
					"maxclass" : "textbutton",
					"numinlets" : 1,
					"numoutlets" : 3,
					"outlettype" : [ "", "", "int" ],
					"parameter_enable" : 0,
					"patching_rect" : [ 607.625, 376.5, 20.0, 20.0 ],
					"rounded" : 60.0,
					"text" : "5",
					"textcolor" : [ 0.34902, 0.34902, 0.34902, 1.0 ]
				}

			}
, 			{
				"box" : 				{
					"id" : "obj-41",
					"maxclass" : "message",
					"numinlets" : 2,
					"numoutlets" : 1,
					"outlettype" : [ "" ],
					"patching_rect" : [ 538.625, 324.5, 32.0, 22.0 ],
					"text" : "train"
				}

			}
, 			{
				"box" : 				{
					"id" : "obj-35",
					"linecount" : 2,
					"maxclass" : "comment",
					"numinlets" : 1,
					"numoutlets" : 0,
					"patching_rect" : [ 598.0, 318.5, 210.0, 33.0 ],
					"text" : "Once three gestures are recorded 'train' the static gesture recognition"
				}

			}
, 			{
				"box" : 				{
					"bgcolor" : [ 1.0, 0.788235, 0.470588, 1.0 ],
					"fontname" : "Arial Bold",
					"hint" : "",
					"id" : "obj-36",
					"ignoreclick" : 1,
					"legacytextcolor" : 1,
					"maxclass" : "textbutton",
					"numinlets" : 1,
					"numoutlets" : 3,
					"outlettype" : [ "", "", "int" ],
					"parameter_enable" : 0,
					"patching_rect" : [ 573.5, 324.5, 20.0, 20.0 ],
					"rounded" : 60.0,
					"text" : "4",
					"textcolor" : [ 0.34902, 0.34902, 0.34902, 1.0 ]
				}

			}
, 			{
				"box" : 				{
					"id" : "obj-33",
					"linecount" : 5,
					"maxclass" : "comment",
					"numinlets" : 1,
					"numoutlets" : 0,
					"patching_rect" : [ 570.5, 227.25, 189.0, 74.0 ],
					"text" : "Toggle the record to 1 and perform a relatively static gesture or hold a bow position. Remember to toggle recording OFF."
				}

			}
, 			{
				"box" : 				{
					"bgcolor" : [ 1.0, 0.788235, 0.470588, 1.0 ],
					"fontname" : "Arial Bold",
					"hint" : "",
					"id" : "obj-34",
					"ignoreclick" : 1,
					"legacytextcolor" : 1,
					"maxclass" : "textbutton",
					"numinlets" : 1,
					"numoutlets" : 3,
					"outlettype" : [ "", "", "int" ],
					"parameter_enable" : 0,
					"patching_rect" : [ 541.625, 245.25, 20.0, 20.0 ],
					"rounded" : 60.0,
					"text" : "3",
					"textcolor" : [ 0.34902, 0.34902, 0.34902, 1.0 ]
				}

			}
, 			{
				"box" : 				{
					"id" : "obj-31",
					"linecount" : 2,
					"maxclass" : "comment",
					"numinlets" : 1,
					"numoutlets" : 0,
					"patching_rect" : [ 499.0, 185.25, 150.0, 33.0 ],
					"text" : "Select which gesture you want to record to."
				}

			}
, 			{
				"box" : 				{
					"bgcolor" : [ 1.0, 0.788235, 0.470588, 1.0 ],
					"fontname" : "Arial Bold",
					"hint" : "",
					"id" : "obj-32",
					"ignoreclick" : 1,
					"legacytextcolor" : 1,
					"maxclass" : "textbutton",
					"numinlets" : 1,
					"numoutlets" : 3,
					"outlettype" : [ "", "", "int" ],
					"parameter_enable" : 0,
					"patching_rect" : [ 473.0, 188.75, 20.0, 20.0 ],
					"rounded" : 60.0,
					"text" : "2",
					"textcolor" : [ 0.34902, 0.34902, 0.34902, 1.0 ]
				}

			}
, 			{
				"box" : 				{
					"id" : "obj-28",
					"maxclass" : "comment",
					"numinlets" : 1,
					"numoutlets" : 0,
					"patching_rect" : [ 332.5, 144.0, 281.0, 20.0 ],
					"text" : "Engage learn mode"
				}

			}
, 			{
				"box" : 				{
					"bgcolor" : [ 1.0, 0.788235, 0.470588, 1.0 ],
					"fontname" : "Arial Bold",
					"hint" : "",
					"id" : "obj-52",
					"ignoreclick" : 1,
					"legacytextcolor" : 1,
					"maxclass" : "textbutton",
					"numinlets" : 1,
					"numoutlets" : 3,
					"outlettype" : [ "", "", "int" ],
					"parameter_enable" : 0,
					"patching_rect" : [ 314.5, 142.0, 20.0, 20.0 ],
					"rounded" : 60.0,
					"text" : "1",
					"textcolor" : [ 0.34902, 0.34902, 0.34902, 1.0 ]
				}

			}
, 			{
				"box" : 				{
					"id" : "obj-25",
					"maxclass" : "live.tab",
					"multiline" : 0,
					"num_lines_patching" : 1,
					"num_lines_presentation" : 0,
					"numinlets" : 1,
					"numoutlets" : 3,
					"outlettype" : [ "", "", "float" ],
					"parameter_enable" : 1,
					"patching_rect" : [ 327.0, 185.25, 144.0, 26.75 ],
					"saved_attribute_attributes" : 					{
						"valueof" : 						{
							"parameter_enum" : [ "gesture 1", "gesture 2", "gesture 3" ],
							"parameter_longname" : "live.tab[4]",
							"parameter_mmax" : 2,
							"parameter_shortname" : "live.tab[3]",
							"parameter_type" : 2,
							"parameter_unitstyle" : 9
						}

					}
,
					"varname" : "live.tab[1]"
				}

			}
, 			{
				"box" : 				{
					"id" : "obj-21",
					"maxclass" : "message",
					"numinlets" : 2,
					"numoutlets" : 1,
					"outlettype" : [ "" ],
					"patching_rect" : [ 327.0, 229.5, 84.0, 22.0 ],
					"text" : "bufferindex $1"
				}

			}
, 			{
				"box" : 				{
					"id" : "obj-22",
					"maxclass" : "message",
					"numinlets" : 2,
					"numoutlets" : 1,
					"outlettype" : [ "" ],
					"patching_rect" : [ 505.625, 281.25, 59.0, 22.0 ],
					"text" : "record $1"
				}

			}
, 			{
				"box" : 				{
					"id" : "obj-27",
					"maxclass" : "toggle",
					"numinlets" : 1,
					"numoutlets" : 1,
					"outlettype" : [ "int" ],
					"parameter_enable" : 0,
					"patching_rect" : [ 505.625, 243.25, 24.0, 24.0 ]
				}

			}
, 			{
				"box" : 				{
					"bgmode" : 0,
					"border" : 1,
					"clickthrough" : 0,
					"enablehscroll" : 0,
					"enablevscroll" : 0,
					"id" : "obj-7",
					"lockeddragscroll" : 0,
					"maxclass" : "bpatcher",
					"name" : "mb.static.maxpat",
					"numinlets" : 1,
					"numoutlets" : 1,
					"offset" : [ 0.0, 0.0 ],
					"outlettype" : [ "" ],
					"patching_rect" : [ 15.0, 309.0, 315.0, 255.0 ],
					"viewvisibility" : 1
				}

			}
, 			{
				"box" : 				{
					"id" : "obj-9",
					"maxclass" : "newobj",
					"numinlets" : 1,
					"numoutlets" : 1,
					"outlettype" : [ "bang" ],
					"patching_rect" : [ 146.0, 585.0, 58.0, 22.0 ],
					"text" : "loadbang"
				}

			}
, 			{
				"box" : 				{
					"id" : "obj-11",
					"maxclass" : "message",
					"numinlets" : 2,
					"numoutlets" : 1,
					"outlettype" : [ "" ],
					"patching_rect" : [ 146.0, 630.0, 208.0, 22.0 ],
					"text" : "read mb-preset-storage1.xml, recall 1"
				}

			}
, 			{
				"box" : 				{
					"id" : "obj-13",
					"maxclass" : "newobj",
					"numinlets" : 1,
					"numoutlets" : 4,
					"outlettype" : [ "", "", "", "" ],
					"patching_rect" : [ 95.0, 679.0, 56.0, 22.0 ],
					"restore" : 					{
						"carrier" : [ 220 ],
						"harmonicity" : [ 199.0 ],
						"index" : [ 42.0 ],
						"live.gain~" : [ 0.0 ],
						"live.tab[1]" : [ 0.0 ]
					}
,
					"text" : "autopattr",
					"varname" : "u890004917[1]"
				}

			}
, 			{
				"box" : 				{
					"autorestore" : "mb-preset-storage1.xml",
					"id" : "obj-14",
					"maxclass" : "newobj",
					"numinlets" : 1,
					"numoutlets" : 1,
					"outlettype" : [ "" ],
					"patching_rect" : [ 15.0, 679.0, 73.0, 22.0 ],
					"saved_object_attributes" : 					{
						"client_rect" : [ 1, 116, 1335, 865 ],
						"parameter_enable" : 0,
						"parameter_mappable" : 0,
						"storage_rect" : [ 583, 69, 1034, 197 ]
					}
,
					"text" : "pattrstorage",
					"varname" : "u816004656[1]"
				}

			}
, 			{
				"box" : 				{
					"color" : [ 1.0, 0.015686274509804, 0.015686274509804, 1.0 ],
					"id" : "obj-15",
					"maxclass" : "newobj",
					"numinlets" : 1,
					"numoutlets" : 1,
					"outlettype" : [ "" ],
					"patcher" : 					{
						"fileversion" : 1,
						"appversion" : 						{
							"major" : 8,
							"minor" : 1,
							"revision" : 8,
							"architecture" : "x64",
							"modernui" : 1
						}
,
						"classnamespace" : "box",
						"rect" : [ 35.0, 116.0, 1266.0, 749.0 ],
						"bglocked" : 0,
						"openinpresentation" : 0,
						"default_fontsize" : 12.0,
						"default_fontface" : 0,
						"default_fontname" : "Arial",
						"gridonopen" : 1,
						"gridsize" : [ 15.0, 15.0 ],
						"gridsnaponopen" : 1,
						"objectsnaponopen" : 1,
						"statusbarvisible" : 2,
						"toolbarvisible" : 1,
						"lefttoolbarpinned" : 0,
						"toptoolbarpinned" : 0,
						"righttoolbarpinned" : 0,
						"bottomtoolbarpinned" : 0,
						"toolbars_unpinned_last_save" : 0,
						"tallnewobj" : 0,
						"boxanimatetime" : 200,
						"enablehscroll" : 1,
						"enablevscroll" : 1,
						"devicewidth" : 0.0,
						"description" : "",
						"digest" : "",
						"tags" : "",
						"style" : "",
						"subpatcher_template" : "Default Max 7",
						"assistshowspatchername" : 0,
						"boxes" : [ 							{
								"box" : 								{
									"comment" : "",
									"id" : "obj-1",
									"index" : 1,
									"maxclass" : "outlet",
									"numinlets" : 1,
									"numoutlets" : 0,
									"patching_rect" : [ 11.0, 289.0, 30.0, 30.0 ]
								}

							}
, 							{
								"box" : 								{
									"id" : "obj-94",
									"maxclass" : "newobj",
									"numinlets" : 2,
									"numoutlets" : 2,
									"outlettype" : [ "", "" ],
									"patching_rect" : [ 11.0, 74.0, 63.0, 22.0 ],
									"text" : "route data"
								}

							}
, 							{
								"box" : 								{
									"id" : "obj-91",
									"maxclass" : "newobj",
									"numinlets" : 1,
									"numoutlets" : 1,
									"outlettype" : [ "" ],
									"patching_rect" : [ 11.0, 242.0, 110.0, 22.0 ],
									"text" : "prepend recallmulti"
								}

							}
, 							{
								"box" : 								{
									"id" : "obj-87",
									"maxclass" : "newobj",
									"numinlets" : 1,
									"numoutlets" : 2,
									"outlettype" : [ "", "bang" ],
									"patching_rect" : [ 11.0, 122.0, 53.5, 22.0 ],
									"text" : "t l b"
								}

							}
, 							{
								"box" : 								{
									"fontname" : "Arial",
									"fontsize" : 12.0,
									"id" : "obj-79",
									"maxclass" : "newobj",
									"numinlets" : 1,
									"numoutlets" : 1,
									"outlettype" : [ "" ],
									"patching_rect" : [ 45.5, 152.0, 90.0, 22.0 ],
									"text" : "loadmess 1 2 3"
								}

							}
, 							{
								"box" : 								{
									"fontname" : "Arial",
									"fontsize" : 12.0,
									"id" : "obj-80",
									"maxclass" : "newobj",
									"numinlets" : 2,
									"numoutlets" : 1,
									"outlettype" : [ "" ],
									"patching_rect" : [ 11.0, 197.0, 151.0, 22.0 ],
									"text" : "vexpr ($f1*0.9999)+$f2"
								}

							}
, 							{
								"box" : 								{
									"comment" : "",
									"id" : "obj-95",
									"index" : 1,
									"maxclass" : "inlet",
									"numinlets" : 0,
									"numoutlets" : 1,
									"outlettype" : [ "" ],
									"patching_rect" : [ 11.0, 14.0, 30.0, 30.0 ]
								}

							}
 ],
						"lines" : [ 							{
								"patchline" : 								{
									"destination" : [ "obj-80", 1 ],
									"source" : [ "obj-79", 0 ]
								}

							}
, 							{
								"patchline" : 								{
									"destination" : [ "obj-91", 0 ],
									"source" : [ "obj-80", 0 ]
								}

							}
, 							{
								"patchline" : 								{
									"destination" : [ "obj-79", 0 ],
									"source" : [ "obj-87", 1 ]
								}

							}
, 							{
								"patchline" : 								{
									"destination" : [ "obj-80", 0 ],
									"source" : [ "obj-87", 0 ]
								}

							}
, 							{
								"patchline" : 								{
									"destination" : [ "obj-1", 0 ],
									"source" : [ "obj-91", 0 ]
								}

							}
, 							{
								"patchline" : 								{
									"destination" : [ "obj-87", 0 ],
									"source" : [ "obj-94", 0 ]
								}

							}
, 							{
								"patchline" : 								{
									"destination" : [ "obj-94", 0 ],
									"source" : [ "obj-95", 0 ]
								}

							}
 ]
					}
,
					"patching_rect" : [ 15.0, 630.0, 124.0, 22.0 ],
					"saved_object_attributes" : 					{
						"description" : "",
						"digest" : "",
						"globalpatchername" : "",
						"tags" : ""
					}
,
					"text" : "p preset_interpolation",
					"varname" : "patcher[1]"
				}

			}
, 			{
				"box" : 				{
					"id" : "obj-97",
					"lastchannelcount" : 0,
					"maxclass" : "live.gain~",
					"numinlets" : 2,
					"numoutlets" : 5,
					"orientation" : 1,
					"outlettype" : [ "signal", "signal", "", "float", "list" ],
					"parameter_enable" : 1,
					"patching_rect" : [ 392.5, 585.0, 136.0, 47.0 ],
					"saved_attribute_attributes" : 					{
						"valueof" : 						{
							"parameter_longname" : "live.gain~[1]",
							"parameter_mmax" : 6.0,
							"parameter_mmin" : -70.0,
							"parameter_shortname" : "Master Volume",
							"parameter_type" : 0,
							"parameter_unitstyle" : 4
						}

					}
,
					"varname" : "live.gain~"
				}

			}
, 			{
				"box" : 				{
					"id" : "obj-61",
					"maxclass" : "number",
					"numinlets" : 1,
					"numoutlets" : 2,
					"outlettype" : [ "", "bang" ],
					"parameter_enable" : 0,
					"patching_rect" : [ 392.5, 456.0, 50.0, 22.0 ],
					"varname" : "carrier"
				}

			}
, 			{
				"box" : 				{
					"id" : "obj-51",
					"maxclass" : "newobj",
					"numinlets" : 1,
					"numoutlets" : 1,
					"outlettype" : [ "signal" ],
					"patching_rect" : [ 392.5, 501.0, 54.0, 22.0 ],
					"text" : "sig~ 440"
				}

			}
, 			{
				"box" : 				{
					"id" : "obj-40",
					"maxclass" : "ezdac~",
					"numinlets" : 2,
					"numoutlets" : 0,
					"patching_rect" : [ 390.0, 660.0, 45.0, 45.0 ]
				}

			}
, 			{
				"box" : 				{
					"format" : 6,
					"id" : "obj-37",
					"maxclass" : "flonum",
					"numinlets" : 1,
					"numoutlets" : 2,
					"outlettype" : [ "", "bang" ],
					"parameter_enable" : 0,
					"patching_rect" : [ 523.5, 456.0, 50.0, 22.0 ],
					"varname" : "index"
				}

			}
, 			{
				"box" : 				{
					"format" : 6,
					"id" : "obj-24",
					"maxclass" : "flonum",
					"numinlets" : 1,
					"numoutlets" : 2,
					"outlettype" : [ "", "bang" ],
					"parameter_enable" : 0,
					"patching_rect" : [ 459.5, 456.0, 50.0, 22.0 ],
					"varname" : "harmonicity"
				}

			}
, 			{
				"box" : 				{
					"id" : "obj-12",
					"maxclass" : "newobj",
					"numinlets" : 1,
					"numoutlets" : 1,
					"outlettype" : [ "signal" ],
					"patching_rect" : [ 523.5, 501.0, 31.0, 22.0 ],
					"text" : "sig~"
				}

			}
, 			{
				"box" : 				{
					"id" : "obj-10",
					"maxclass" : "newobj",
					"numinlets" : 1,
					"numoutlets" : 1,
					"outlettype" : [ "signal" ],
					"patching_rect" : [ 459.5, 501.0, 31.0, 22.0 ],
					"text" : "sig~"
				}

			}
, 			{
				"box" : 				{
					"id" : "obj-5",
					"maxclass" : "newobj",
					"numinlets" : 3,
					"numoutlets" : 1,
					"outlettype" : [ "signal" ],
					"patching_rect" : [ 392.5, 544.0, 150.0, 22.0 ],
					"text" : "simpleFM~"
				}

			}
, 			{
				"box" : 				{
					"fontname" : "Lato",
					"fontsize" : 24.0,
					"id" : "obj-83",
					"maxclass" : "comment",
					"numinlets" : 1,
					"numoutlets" : 0,
					"patching_rect" : [ 855.0, 120.0, 236.0, 35.0 ],
					"presentation" : 1,
					"presentation_rect" : [ 30.0, 30.0, 446.0, 35.0 ],
					"text" : "Explanation"
				}

			}
, 			{
				"box" : 				{
					"fontname" : "Lato",
					"id" : "obj-81",
					"linecount" : 6,
					"maxclass" : "comment",
					"numinlets" : 1,
					"numoutlets" : 0,
					"patching_rect" : [ 855.0, 157.0, 362.0, 93.0 ],
					"text" : "This example uses the likelihoods output of the static gesture recognition abstraction to interpolate between presets stored for an FM synthesiser. While in \"play\" mode, if you perform perfectly a recorded state the interpolation will be minimal while entering states between the recorded gestures will explore the unknown spaces between known points."
				}

			}
, 			{
				"box" : 				{
					"id" : "obj-23",
					"maxclass" : "newobj",
					"numinlets" : 1,
					"numoutlets" : 1,
					"outlettype" : [ "bang" ],
					"patching_rect" : [ 90.0, 142.0, 58.0, 22.0 ],
					"text" : "loadbang"
				}

			}
, 			{
				"box" : 				{
					"id" : "obj-17",
					"maxclass" : "message",
					"numinlets" : 2,
					"numoutlets" : 1,
					"outlettype" : [ "" ],
					"patching_rect" : [ 90.0, 180.0, 126.0, 22.0 ],
					"text" : "smoothing 11, mode 1"
				}

			}
, 			{
				"box" : 				{
					"id" : "obj-42",
					"maxclass" : "newobj",
					"numinlets" : 1,
					"numoutlets" : 1,
					"outlettype" : [ "" ],
					"patching_rect" : [ 15.0, 142.0, 67.0, 22.0 ],
					"text" : "mb.bitalino",
					"varname" : "mb.bitalino"
				}

			}
, 			{
				"box" : 				{
					"id" : "obj-38",
					"maxclass" : "newobj",
					"numinlets" : 1,
					"numoutlets" : 1,
					"outlettype" : [ "" ],
					"patching_rect" : [ 15.0, 234.0, 57.0, 22.0 ],
					"text" : "mb.accel"
				}

			}
, 			{
				"box" : 				{
					"id" : "obj-3",
					"justification" : 1,
					"linecolor" : [ 0.352941176470588, 0.352941176470588, 0.352941176470588, 0.5 ],
					"maxclass" : "live.line",
					"numinlets" : 1,
					"numoutlets" : 0,
					"patching_rect" : [ 15.0, 120.0, 630.0, 10.0 ]
				}

			}
, 			{
				"box" : 				{
					"fontname" : "Lato",
					"fontsize" : 13.0,
					"id" : "obj-4",
					"linecount" : 2,
					"maxclass" : "comment",
					"numinlets" : 1,
					"numoutlets" : 0,
					"patching_rect" : [ 15.0, 62.0, 631.0, 38.0 ],
					"text" : "In a similar fashion to the first preset interplation example data can be used to control interpolation. In this case though, more meaningful gestural information is mapped with the static gesture recognition abstraction."
				}

			}
, 			{
				"box" : 				{
					"fontname" : "Lato",
					"fontsize" : 32.0,
					"id" : "obj-2",
					"maxclass" : "comment",
					"numinlets" : 1,
					"numoutlets" : 0,
					"patching_rect" : [ 15.0, 15.0, 525.0, 45.0 ],
					"presentation" : 1,
					"presentation_linecount" : 2,
					"presentation_rect" : [ 15.0, 15.0, 387.0, 83.0 ],
					"text" : "MetaBow - Preset Interpolation 2"
				}

			}
, 			{
				"box" : 				{
					"angle" : 270.0,
					"background" : 1,
					"bgcolor" : [ 0.2, 0.2, 0.2, 0.0 ],
					"border" : 3,
					"bordercolor" : [ 0.0, 0.0, 0.0, 1.0 ],
					"id" : "obj-47",
					"maxclass" : "panel",
					"mode" : 0,
					"numinlets" : 1,
					"numoutlets" : 0,
					"patching_rect" : [ 375.0, 435.0, 216.0, 285.0 ],
					"proportion" : 0.5
				}

			}
 ],
		"lines" : [ 			{
				"patchline" : 				{
					"destination" : [ "obj-97", 0 ],
					"midpoints" : [ 624.5, 579.0, 402.0, 579.0 ],
					"source" : [ "obj-1", 0 ]
				}

			}
, 			{
				"patchline" : 				{
					"destination" : [ "obj-5", 1 ],
					"source" : [ "obj-10", 0 ]
				}

			}
, 			{
				"patchline" : 				{
					"destination" : [ "obj-14", 0 ],
					"midpoints" : [ 155.5, 664.0, 24.5, 664.0 ],
					"source" : [ "obj-11", 0 ]
				}

			}
, 			{
				"patchline" : 				{
					"destination" : [ "obj-5", 2 ],
					"source" : [ "obj-12", 0 ]
				}

			}
, 			{
				"patchline" : 				{
					"destination" : [ "obj-14", 0 ],
					"source" : [ "obj-15", 0 ]
				}

			}
, 			{
				"patchline" : 				{
					"destination" : [ "obj-38", 0 ],
					"midpoints" : [ 99.5, 219.0, 24.5, 219.0 ],
					"source" : [ "obj-17", 0 ]
				}

			}
, 			{
				"patchline" : 				{
					"destination" : [ "obj-7", 0 ],
					"midpoints" : [ 336.5, 294.0, 24.5, 294.0 ],
					"source" : [ "obj-21", 0 ]
				}

			}
, 			{
				"patchline" : 				{
					"destination" : [ "obj-7", 0 ],
					"midpoints" : [ 515.125, 303.0, 342.0, 303.0, 342.0, 294.0, 24.5, 294.0 ],
					"source" : [ "obj-22", 0 ]
				}

			}
, 			{
				"patchline" : 				{
					"destination" : [ "obj-17", 0 ],
					"source" : [ "obj-23", 0 ]
				}

			}
, 			{
				"patchline" : 				{
					"destination" : [ "obj-10", 0 ],
					"source" : [ "obj-24", 0 ]
				}

			}
, 			{
				"patchline" : 				{
					"destination" : [ "obj-21", 0 ],
					"source" : [ "obj-25", 0 ]
				}

			}
, 			{
				"patchline" : 				{
					"destination" : [ "obj-7", 0 ],
					"midpoints" : [ 252.5, 294.0, 24.5, 294.0 ],
					"source" : [ "obj-26", 0 ]
				}

			}
, 			{
				"patchline" : 				{
					"destination" : [ "obj-22", 0 ],
					"source" : [ "obj-27", 0 ]
				}

			}
, 			{
				"patchline" : 				{
					"destination" : [ "obj-12", 0 ],
					"source" : [ "obj-37", 0 ]
				}

			}
, 			{
				"patchline" : 				{
					"destination" : [ "obj-7", 0 ],
					"midpoints" : [ 24.5, 258.0, 24.5, 258.0 ],
					"source" : [ "obj-38", 0 ]
				}

			}
, 			{
				"patchline" : 				{
					"destination" : [ "obj-7", 0 ],
					"midpoints" : [ 92.5, 294.0, 24.5, 294.0 ],
					"source" : [ "obj-39", 0 ]
				}

			}
, 			{
				"patchline" : 				{
					"destination" : [ "obj-7", 0 ],
					"midpoints" : [ 548.125, 348.0, 342.0, 348.0, 342.0, 294.0, 24.5, 294.0 ],
					"source" : [ "obj-41", 0 ]
				}

			}
, 			{
				"patchline" : 				{
					"destination" : [ "obj-38", 0 ],
					"midpoints" : [ 24.5, 165.0, 24.5, 165.0 ],
					"source" : [ "obj-42", 0 ]
				}

			}
, 			{
				"patchline" : 				{
					"destination" : [ "obj-7", 0 ],
					"midpoints" : [ 548.125, 399.0, 342.0, 399.0, 342.0, 294.0, 24.5, 294.0 ],
					"source" : [ "obj-48", 0 ]
				}

			}
, 			{
				"patchline" : 				{
					"destination" : [ "obj-15", 0 ],
					"source" : [ "obj-49", 0 ]
				}

			}
, 			{
				"patchline" : 				{
					"destination" : [ "obj-97", 0 ],
					"source" : [ "obj-5", 0 ]
				}

			}
, 			{
				"patchline" : 				{
					"destination" : [ "obj-5", 0 ],
					"source" : [ "obj-51", 0 ]
				}

			}
, 			{
				"patchline" : 				{
					"destination" : [ "obj-51", 0 ],
					"source" : [ "obj-61", 0 ]
				}

			}
, 			{
				"patchline" : 				{
					"destination" : [ "obj-49", 0 ],
					"source" : [ "obj-7", 0 ]
				}

			}
, 			{
				"patchline" : 				{
					"destination" : [ "obj-11", 0 ],
					"source" : [ "obj-9", 0 ]
				}

			}
, 			{
				"patchline" : 				{
					"destination" : [ "obj-40", 1 ],
					"order" : 0,
					"source" : [ "obj-97", 0 ]
				}

			}
, 			{
				"patchline" : 				{
					"destination" : [ "obj-40", 0 ],
					"order" : 1,
					"source" : [ "obj-97", 0 ]
				}

			}
 ],
		"parameters" : 		{
			"obj-25" : [ "live.tab[4]", "live.tab[3]", 0 ],
			"obj-38::obj-3::obj-15" : [ "live.dial", "Smoothing", 0 ],
			"obj-38::obj-3::obj-3" : [ "live.tab[2]", "live.tab", 0 ],
			"obj-42::obj-1" : [ "live.numbox[5]", "live.numbox[5]", 0 ],
			"obj-42::obj-11" : [ "live.tab[6]", "live.tab[1]", 0 ],
			"obj-42::obj-15" : [ "live.numbox[6]", "live.numbox[5]", 0 ],
			"obj-42::obj-16" : [ "live.numbox[15]", "live.numbox", 0 ],
			"obj-42::obj-17" : [ "live.text[5]", "live.text[1]", 0 ],
			"obj-7::obj-17" : [ "live.text[1]", "live.text[1]", 0 ],
			"obj-7::obj-78" : [ "live.text[2]", "live.text[2]", 0 ],
			"obj-7::obj-79" : [ "live.text[3]", "live.text[2]", 0 ],
			"obj-7::obj-8" : [ "live.text", "live.text", 0 ],
			"obj-7::obj-91" : [ "live.tab", "live.tab", 0 ],
			"obj-97" : [ "live.gain~[1]", "Master Volume", 0 ],
			"parameterbanks" : 			{

			}
,
			"parameter_overrides" : 			{
				"obj-38::obj-3::obj-15" : 				{
					"parameter_longname" : "live.dial"
				}
,
				"obj-38::obj-3::obj-3" : 				{
					"parameter_longname" : "live.tab[2]"
				}
,
				"obj-42::obj-11" : 				{
					"parameter_longname" : "live.tab[6]"
				}
,
				"obj-42::obj-16" : 				{
					"parameter_longname" : "live.numbox[15]"
				}
,
				"obj-42::obj-17" : 				{
					"parameter_longname" : "live.text[5]"
				}
,
				"obj-7::obj-17" : 				{
					"parameter_longname" : "live.text[1]"
				}
,
				"obj-7::obj-78" : 				{
					"parameter_longname" : "live.text[2]"
				}
,
				"obj-7::obj-79" : 				{
					"parameter_longname" : "live.text[3]"
				}
,
				"obj-7::obj-8" : 				{
					"parameter_longname" : "live.text"
				}
,
				"obj-7::obj-91" : 				{
					"parameter_invisible" : 0,
					"parameter_longname" : "live.tab",
					"parameter_modmode" : 0,
					"parameter_range" : [ "0", "1", "2" ],
					"parameter_type" : 2,
					"parameter_unitstyle" : 9
				}

			}
,
			"inherited_shortname" : 1
		}
,
		"dependency_cache" : [ 			{
				"name" : "mb.accel.maxpat",
				"bootpath" : "~/Cloud/Consulting/GestureRecognition/MetaBow Toolkit/misc",
				"patcherrelativepath" : "../../misc",
				"type" : "JSON",
				"implicit" : 1
			}
, 			{
				"name" : "mb.subsmoother.maxpat",
				"bootpath" : "~/Cloud/Consulting/GestureRecognition/MetaBow Toolkit/misc",
				"patcherrelativepath" : "../../misc",
				"type" : "JSON",
				"implicit" : 1
			}
, 			{
				"name" : "mb.subsmoother.js",
				"bootpath" : "~/Cloud/Consulting/GestureRecognition/MetaBow Toolkit/misc",
				"patcherrelativepath" : "../../misc",
				"type" : "TEXT",
				"implicit" : 1
			}
, 			{
				"name" : "mb.bitalino.maxpat",
				"bootpath" : "~/Cloud/Consulting/GestureRecognition/MetaBow Toolkit/misc",
				"patcherrelativepath" : "../../misc",
				"type" : "JSON",
				"implicit" : 1
			}
, 			{
				"name" : "simpleFM~.maxpat",
				"bootpath" : "C74:/docs/tutorial-patchers/msp-tut",
				"type" : "JSON",
				"implicit" : 1
			}
, 			{
				"name" : "mb-preset-storage1.xml",
				"bootpath" : "~/Cloud/Consulting/GestureRecognition/MetaBow Toolkit/docs/tutorial-patchers",
				"patcherrelativepath" : ".",
				"type" : "TEXT",
				"implicit" : 1
			}
, 			{
				"name" : "mb.static.maxpat",
				"bootpath" : "~/Cloud/Consulting/GestureRecognition/MetaBow Toolkit/misc",
				"patcherrelativepath" : "../../misc",
				"type" : "JSON",
				"implicit" : 1
			}
, 			{
				"name" : "mb.static.js",
				"bootpath" : "~/Cloud/Consulting/GestureRecognition/MetaBow Toolkit/misc",
				"patcherrelativepath" : "../../misc",
				"type" : "TEXT",
				"implicit" : 1
			}
, 			{
				"name" : "pipo.mxo",
				"type" : "iLaX"
			}
, 			{
				"name" : "mubu.mxo",
				"type" : "iLaX"
			}
, 			{
				"name" : "mubu.mxo",
				"type" : "iLaX"
			}
, 			{
				"name" : "mubu.mxo",
				"type" : "iLaX"
			}
, 			{
				"name" : "mubu.gmm.mxo",
				"type" : "iLaX"
			}
 ],
		"autosave" : 0
	}

}
