{
	"patcher" : 	{
		"fileversion" : 1,
		"appversion" : 		{
			"major" : 8,
			"minor" : 1,
			"revision" : 3,
			"architecture" : "x64",
			"modernui" : 1
		}
,
		"classnamespace" : "box",
		"rect" : [ 34.0, 79.0, 892.0, 787.0 ],
		"bglocked" : 0,
		"openinpresentation" : 0,
		"default_fontsize" : 12.0,
		"default_fontface" : 0,
		"default_fontname" : "Arial",
		"gridonopen" : 2,
		"gridsize" : [ 15.0, 15.0 ],
		"gridsnaponopen" : 2,
		"objectsnaponopen" : 1,
		"statusbarvisible" : 2,
		"toolbarvisible" : 1,
		"lefttoolbarpinned" : 0,
		"toptoolbarpinned" : 0,
		"righttoolbarpinned" : 0,
		"bottomtoolbarpinned" : 0,
		"toolbars_unpinned_last_save" : 0,
		"tallnewobj" : 0,
		"boxanimatetime" : 200,
		"enablehscroll" : 1,
		"enablevscroll" : 1,
		"devicewidth" : 0.0,
		"description" : "",
		"digest" : "",
		"tags" : "",
		"style" : "",
		"subpatcher_template" : "Default Max 7",
		"boxes" : [ 			{
				"box" : 				{
					"id" : "obj-21",
					"maxclass" : "newobj",
					"numinlets" : 2,
					"numoutlets" : 1,
					"outlettype" : [ "bang" ],
					"patching_rect" : [ 432.0, 265.5, 56.0, 22.0 ],
					"text" : "metro 10"
				}

			}
, 			{
				"box" : 				{
					"id" : "obj-22",
					"maxclass" : "newobj",
					"numinlets" : 2,
					"numoutlets" : 2,
					"outlettype" : [ "", "" ],
					"patching_rect" : [ 390.0, 241.5, 38.0, 22.0 ],
					"text" : "zl reg"
				}

			}
, 			{
				"box" : 				{
					"id" : "obj-23",
					"maxclass" : "toggle",
					"numinlets" : 1,
					"numoutlets" : 1,
					"outlettype" : [ "int" ],
					"parameter_enable" : 0,
					"patching_rect" : [ 510.0, 241.5, 59.0, 59.0 ]
				}

			}
, 			{
				"box" : 				{
					"id" : "obj-24",
					"maxclass" : "message",
					"numinlets" : 2,
					"numoutlets" : 1,
					"outlettype" : [ "" ],
					"patching_rect" : [ 510.0, 316.0, 47.0, 22.0 ],
					"text" : "play $1"
				}

			}
, 			{
				"box" : 				{
					"id" : "obj-25",
					"maxclass" : "newobj",
					"numinlets" : 1,
					"numoutlets" : 1,
					"outlettype" : [ "" ],
					"patching_rect" : [ 390.0, 316.0, 79.0, 22.0 ],
					"text" : "prepend data"
				}

			}
, 			{
				"box" : 				{
					"contdata" : 1,
					"id" : "obj-26",
					"maxclass" : "multislider",
					"numinlets" : 1,
					"numoutlets" : 2,
					"outlettype" : [ "", "" ],
					"parameter_enable" : 0,
					"patching_rect" : [ 390.0, 91.0, 105.0, 90.0 ],
					"setminmax" : [ 0.0, 1.0 ],
					"size" : 3
				}

			}
, 			{
				"box" : 				{
					"id" : "obj-18",
					"maxclass" : "newobj",
					"numinlets" : 2,
					"numoutlets" : 1,
					"outlettype" : [ "bang" ],
					"patching_rect" : [ 728.0, 280.5, 63.0, 22.0 ],
					"text" : "metro 100"
				}

			}
, 			{
				"box" : 				{
					"id" : "obj-17",
					"maxclass" : "newobj",
					"numinlets" : 2,
					"numoutlets" : 2,
					"outlettype" : [ "", "" ],
					"patching_rect" : [ 686.0, 256.5, 38.0, 22.0 ],
					"text" : "zl reg"
				}

			}
, 			{
				"box" : 				{
					"id" : "obj-16",
					"maxclass" : "toggle",
					"numinlets" : 1,
					"numoutlets" : 1,
					"outlettype" : [ "int" ],
					"parameter_enable" : 0,
					"patching_rect" : [ 806.0, 256.5, 59.0, 59.0 ]
				}

			}
, 			{
				"box" : 				{
					"id" : "obj-14",
					"maxclass" : "message",
					"numinlets" : 2,
					"numoutlets" : 1,
					"outlettype" : [ "" ],
					"patching_rect" : [ 806.0, 331.0, 59.0, 22.0 ],
					"text" : "record $1"
				}

			}
, 			{
				"box" : 				{
					"id" : "obj-11",
					"maxclass" : "newobj",
					"numinlets" : 1,
					"numoutlets" : 1,
					"outlettype" : [ "" ],
					"patching_rect" : [ 686.0, 331.0, 79.0, 22.0 ],
					"text" : "prepend data"
				}

			}
, 			{
				"box" : 				{
					"contdata" : 1,
					"id" : "obj-10",
					"maxclass" : "multislider",
					"numinlets" : 1,
					"numoutlets" : 2,
					"outlettype" : [ "", "" ],
					"parameter_enable" : 0,
					"patching_rect" : [ 686.0, 106.0, 105.0, 90.0 ],
					"setminmax" : [ 0.0, 1.0 ],
					"size" : 2
				}

			}
, 			{
				"box" : 				{
					"bgmode" : 0,
					"border" : 1,
					"clickthrough" : 0,
					"enablehscroll" : 0,
					"enablevscroll" : 0,
					"id" : "obj-9",
					"lockeddragscroll" : 0,
					"maxclass" : "bpatcher",
					"name" : "mb.static.maxpat",
					"numinlets" : 2,
					"numoutlets" : 2,
					"offset" : [ 0.0, 0.0 ],
					"outlettype" : [ "", "" ],
					"patching_rect" : [ 390.0, 391.0, 315.0, 255.0 ],
					"viewvisibility" : 1
				}

			}
, 			{
				"box" : 				{
					"bgmode" : 0,
					"border" : 1,
					"clickthrough" : 0,
					"enablehscroll" : 0,
					"enablevscroll" : 0,
					"id" : "obj-12",
					"lockeddragscroll" : 0,
					"maxclass" : "bpatcher",
					"name" : "mb.mapper.maxpat",
					"numinlets" : 1,
					"numoutlets" : 1,
					"offset" : [ 0.0, 0.0 ],
					"outlettype" : [ "" ],
					"patching_rect" : [ 30.0, 390.0, 210.0, 165.0 ],
					"viewvisibility" : 1
				}

			}
, 			{
				"box" : 				{
					"bgmode" : 0,
					"border" : 1,
					"clickthrough" : 0,
					"enablehscroll" : 0,
					"enablevscroll" : 0,
					"id" : "obj-6",
					"lockeddragscroll" : 0,
					"maxclass" : "bpatcher",
					"name" : "mb.bitalino.maxpat",
					"numinlets" : 1,
					"numoutlets" : 1,
					"offset" : [ 0.0, 0.0 ],
					"outlettype" : [ "" ],
					"patching_rect" : [ 30.0, 30.0, 165.0, 151.0 ],
					"varname" : "grec-bitalino",
					"viewvisibility" : 1
				}

			}
, 			{
				"box" : 				{
					"bgmode" : 0,
					"border" : 1,
					"clickthrough" : 0,
					"enablehscroll" : 0,
					"enablevscroll" : 0,
					"id" : "obj-3",
					"lockeddragscroll" : 0,
					"maxclass" : "bpatcher",
					"name" : "mb.accel.maxpat",
					"numinlets" : 1,
					"numoutlets" : 1,
					"offset" : [ 0.0, 0.0 ],
					"outlettype" : [ "" ],
					"patching_rect" : [ 30.0, 195.0, 195.0, 180.0 ],
					"viewvisibility" : 1
				}

			}
 ],
		"lines" : [ 			{
				"patchline" : 				{
					"destination" : [ "obj-17", 1 ],
					"source" : [ "obj-10", 0 ]
				}

			}
, 			{
				"patchline" : 				{
					"destination" : [ "obj-9", 1 ],
					"source" : [ "obj-11", 0 ]
				}

			}
, 			{
				"patchline" : 				{
					"destination" : [ "obj-9", 1 ],
					"source" : [ "obj-14", 0 ]
				}

			}
, 			{
				"patchline" : 				{
					"destination" : [ "obj-14", 0 ],
					"order" : 0,
					"source" : [ "obj-16", 0 ]
				}

			}
, 			{
				"patchline" : 				{
					"destination" : [ "obj-18", 0 ],
					"order" : 1,
					"source" : [ "obj-16", 0 ]
				}

			}
, 			{
				"patchline" : 				{
					"destination" : [ "obj-11", 0 ],
					"source" : [ "obj-17", 0 ]
				}

			}
, 			{
				"patchline" : 				{
					"destination" : [ "obj-17", 0 ],
					"source" : [ "obj-18", 0 ]
				}

			}
, 			{
				"patchline" : 				{
					"destination" : [ "obj-22", 0 ],
					"source" : [ "obj-21", 0 ]
				}

			}
, 			{
				"patchline" : 				{
					"destination" : [ "obj-25", 0 ],
					"source" : [ "obj-22", 0 ]
				}

			}
, 			{
				"patchline" : 				{
					"destination" : [ "obj-21", 0 ],
					"order" : 1,
					"source" : [ "obj-23", 0 ]
				}

			}
, 			{
				"patchline" : 				{
					"destination" : [ "obj-24", 0 ],
					"order" : 0,
					"source" : [ "obj-23", 0 ]
				}

			}
, 			{
				"patchline" : 				{
					"destination" : [ "obj-9", 0 ],
					"source" : [ "obj-24", 0 ]
				}

			}
, 			{
				"patchline" : 				{
					"destination" : [ "obj-9", 0 ],
					"source" : [ "obj-25", 0 ]
				}

			}
, 			{
				"patchline" : 				{
					"destination" : [ "obj-22", 1 ],
					"source" : [ "obj-26", 0 ]
				}

			}
, 			{
				"patchline" : 				{
					"destination" : [ "obj-12", 0 ],
					"source" : [ "obj-3", 0 ]
				}

			}
, 			{
				"patchline" : 				{
					"destination" : [ "obj-3", 0 ],
					"source" : [ "obj-6", 0 ]
				}

			}
 ],
		"parameters" : 		{
			"obj-9::obj-91" : [ "live.tab", "live.tab", 0 ],
			"obj-12::obj-35" : [ "live.text[6]", "live.text", 0 ],
			"obj-6::obj-11" : [ "live.tab[1]", "live.tab[1]", 0 ],
			"obj-12::obj-7" : [ "live.numbox[9]", "live.numbox", 0 ],
			"obj-12::obj-31" : [ "live.tab[3]", "live.tab[3]", 0 ],
			"obj-6::obj-17" : [ "live.text[5]", "live.text[1]", 0 ],
			"obj-6::obj-1" : [ "live.numbox[5]", "live.numbox[5]", 0 ],
			"obj-9::obj-79" : [ "live.text[3]", "live.text[2]", 0 ],
			"obj-12::obj-10" : [ "live.numbox[8]", "live.numbox", 0 ],
			"obj-3::obj-3::obj-15" : [ "live.dial", "Smoothing", 0 ],
			"obj-12::obj-9" : [ "live.numbox[7]", "live.numbox", 0 ],
			"obj-3::obj-3::obj-3" : [ "live.tab[2]", "live.tab", 0 ],
			"obj-12::obj-8" : [ "live.numbox[10]", "live.numbox", 0 ],
			"obj-9::obj-17" : [ "live.text[1]", "live.text[1]", 0 ],
			"obj-9::obj-8" : [ "live.text", "live.text", 0 ],
			"obj-9::obj-78" : [ "live.text[2]", "live.text[2]", 0 ],
			"obj-6::obj-15" : [ "live.numbox[6]", "live.numbox[5]", 0 ],
			"obj-6::obj-16" : [ "live.numbox[4]", "live.numbox", 0 ],
			"parameterbanks" : 			{

			}
,
			"parameter_overrides" : 			{
				"obj-9::obj-91" : 				{
					"parameter_invisible" : 0,
					"parameter_modmode" : 0,
					"parameter_type" : 2,
					"parameter_range" : [ "1", "2" ]
				}

			}

		}
,
		"dependency_cache" : [ 			{
				"name" : "mb.accel.maxpat",
				"bootpath" : "~/Cloud/Consulting/GestureRecognition/MetaBow Toolkit/misc",
				"patcherrelativepath" : "../misc",
				"type" : "JSON",
				"implicit" : 1
			}
, 			{
				"name" : "mb.subsmoother.maxpat",
				"bootpath" : "~/Cloud/Consulting/GestureRecognition/MetaBow Toolkit/misc",
				"patcherrelativepath" : "../misc",
				"type" : "JSON",
				"implicit" : 1
			}
, 			{
				"name" : "mb.subsmoother.js",
				"bootpath" : "~/Cloud/Consulting/GestureRecognition/MetaBow Toolkit/misc",
				"patcherrelativepath" : "../misc",
				"type" : "TEXT",
				"implicit" : 1
			}
, 			{
				"name" : "mb.bitalino.maxpat",
				"bootpath" : "~/Cloud/Consulting/GestureRecognition/MetaBow Toolkit/misc",
				"patcherrelativepath" : "../misc",
				"type" : "JSON",
				"implicit" : 1
			}
, 			{
				"name" : "mb.mapper.maxpat",
				"bootpath" : "~/Cloud/Consulting/GestureRecognition/MetaBow Toolkit/misc",
				"patcherrelativepath" : "../misc",
				"type" : "JSON",
				"implicit" : 1
			}
, 			{
				"name" : "mb.static.maxpat",
				"bootpath" : "~/Cloud/Consulting/GestureRecognition/MetaBow Toolkit/misc",
				"patcherrelativepath" : "../misc",
				"type" : "JSON",
				"implicit" : 1
			}
, 			{
				"name" : "mb.static.js",
				"bootpath" : "~/Cloud/Consulting/GestureRecognition/MetaBow Toolkit/misc",
				"patcherrelativepath" : "../misc",
				"type" : "TEXT",
				"implicit" : 1
			}
, 			{
				"name" : "pipo.mxo",
				"type" : "iLaX"
			}
, 			{
				"name" : "mubu.mxo",
				"type" : "iLaX"
			}
, 			{
				"name" : "mubu.mxo",
				"type" : "iLaX"
			}
, 			{
				"name" : "mubu.mxo",
				"type" : "iLaX"
			}
, 			{
				"name" : "mubu.hhmm.mxo",
				"type" : "iLaX"
			}
 ],
		"autosave" : 0
	}

}
